<?xml version="1.0" encoding="UTF-8"?>
<svg xmlns="http://www.w3.org/2000/svg" width="1041" height="563" viewBox="-128 -128 16643 9005">
  <style>text { font-family: "JetBrains Mono", monospace; font-kerning: none; }</style>
  <rect x="4468" y="3448" width="11919" height="5301" rx="128" fill="#ffffff" stroke="#1a1a1a" stroke-width="16" class="scav-state scav-id-0"/>
  <rect x="7551" y="0" width="4404" height="2977" rx="128" fill="#ffffff" stroke="#1a1a1a" stroke-width="16" class="scav-state scav-id-1"/>
  <rect x="800" y="183" width="896" height="653" rx="81" fill="#ffffff" stroke="#1a1a1a" stroke-width="16" class="scav-state scav-id-2"/>
  <rect x="5294" y="183" width="1319" height="653" rx="81" fill="#ffffff" stroke="#1a1a1a" stroke-width="16" class="scav-state scav-id-3"/>
  <rect x="0" y="4673" width="2496" height="3361" rx="128" fill="#ffffff" stroke="#1a1a1a" stroke-width="16" class="scav-state scav-id-5"/>
  <rect x="928" y="5198" width="973" height="653" rx="81" fill="#ffffff" stroke="#1a1a1a" stroke-width="16" class="scav-state scav-id-6"/>
  <rect x="128" y="6139" width="1664" height="922" rx="115" fill="#ffffff" stroke="#1a1a1a" stroke-width="16" class="scav-state scav-id-7"/>
  <rect x="928" y="7253" width="973" height="653" rx="81" fill="#ffffff" stroke="#1a1a1a" stroke-width="16" class="scav-state scav-id-8"/>
  <rect x="11279" y="4156" width="4980" height="2977" rx="128" fill="#ffffff" stroke="#1a1a1a" stroke-width="16" class="scav-state scav-id-9"/>
  <rect x="7480" y="7786" width="1088" height="653" rx="81" fill="#ffffff" stroke="#1a1a1a" stroke-width="16" class="scav-state scav-id-10"/>
  <rect x="5934" y="4156" width="4180" height="2977" rx="128" fill="#ffffff" stroke="#1a1a1a" stroke-width="16" class="scav-state scav-id-11"/>
  <rect x="8091" y="6170" width="1204" height="653" rx="81" fill="#ffffff" stroke="#1a1a1a" stroke-width="16" class="scav-state scav-id-12"/>
  <rect x="7976" y="4864" width="1434" height="653" rx="81" fill="#ffffff" stroke="#1a1a1a" stroke-width="16" class="scav-state scav-id-13"/>
  <rect x="10662" y="2014" width="896" height="653" rx="81" fill="#ffffff" stroke="#1a1a1a" stroke-width="16" class="scav-state scav-id-14"/>
  <rect x="10393" y="708" width="1434" height="653" rx="81" fill="#ffffff" stroke="#1a1a1a" stroke-width="16" class="scav-state scav-id-15"/>
  <rect x="7679" y="708" width="1088" height="653" rx="81" fill="#ffffff" stroke="#1a1a1a" stroke-width="16" class="scav-state scav-id-16"/>
  <rect x="14966" y="6170" width="896" height="653" rx="81" fill="#ffffff" stroke="#1a1a1a" stroke-width="16" class="scav-state scav-id-17"/>
  <rect x="14697" y="4864" width="1434" height="653" rx="81" fill="#ffffff" stroke="#1a1a1a" stroke-width="16" class="scav-state scav-id-18"/>
  <rect x="11983" y="4864" width="1088" height="653" rx="81" fill="#ffffff" stroke="#1a1a1a" stroke-width="16" class="scav-state scav-id-19"/>
  <line x1="128" y1="7157" x2="2368" y2="7157" fill="none" stroke="#808080" stroke-width="16" stroke-dasharray="64,48" class="scav-sub scav-id-2"/>
  <polyline points="224,509 704,509" fill="none" stroke="#1a1a1a" stroke-width="16" class="scav-trans scav-id-0"/>
  <polyline points="1696,509 5198,509" fill="none" stroke="#1a1a1a" stroke-width="16" class="scav-trans scav-id-1"/>
  <polyline points="352,5524 832,5524" fill="none" stroke="#1a1a1a" stroke-width="16" class="scav-trans scav-id-2"/>
  <polyline points="1792,6600 2496,6600 4468,6600 5934,6600 7995,6600" fill="none" stroke="#1a1a1a" stroke-width="16" class="scav-trans scav-id-4"/>
  <polyline points="352,7579 832,7579" fill="none" stroke="#1a1a1a" stroke-width="16" class="scav-trans scav-id-5"/>
  <polyline points="7515,6392 7995,6392" fill="none" stroke="#1a1a1a" stroke-width="16" class="scav-trans scav-id-6"/>
  <polyline points="8693,6170 8693,5613" fill="none" stroke="#1a1a1a" stroke-width="16" class="scav-trans scav-id-7"/>
  <polyline points="9410,5190 10114,5190 11279,5190 11887,5190" fill="none" stroke="#1a1a1a" stroke-width="16" class="scav-trans scav-id-8"/>
  <polyline points="6904,8112 7384,8112" fill="none" stroke="#1a1a1a" stroke-width="16" class="scav-trans scav-id-9"/>
  <polyline points="8072,7786 8072,7229" fill="none" stroke="#1a1a1a" stroke-width="16" class="scav-trans scav-id-10"/>
  <polyline points="7976,7133 7976,7690" fill="none" stroke="#1a1a1a" stroke-width="16" class="scav-trans scav-id-11"/>
  <polyline points="10086,2444 10566,2444" fill="none" stroke="#1a1a1a" stroke-width="16" class="scav-trans scav-id-12"/>
  <polyline points="11110,2014 11110,1457" fill="none" stroke="#1a1a1a" stroke-width="16" class="scav-trans scav-id-13"/>
  <polyline points="10393,1034 8863,1034" fill="none" stroke="#1a1a1a" stroke-width="16" class="scav-trans scav-id-14"/>
  <polyline points="8671,1361 8671,2110 10566,2110" fill="none" stroke="#1a1a1a" stroke-width="16" class="scav-trans scav-id-15"/>
  <polyline points="14390,6600 14870,6600" fill="none" stroke="#1a1a1a" stroke-width="16" class="scav-trans scav-id-16"/>
  <polyline points="15414,6170 15414,5613" fill="none" stroke="#1a1a1a" stroke-width="16" class="scav-trans scav-id-17"/>
  <polyline points="14697,5190 13167,5190" fill="none" stroke="#1a1a1a" stroke-width="16" class="scav-trans scav-id-18"/>
  <polyline points="12975,5517 12975,6266 14870,6266" fill="none" stroke="#1a1a1a" stroke-width="16" class="scav-trans scav-id-19"/>
  <polygon points="800,509 704,557 704,461" fill="#1a1a1a" stroke="none" class="scav-trans scav-id-0"/>
  <polygon points="5294,509 5198,557 5198,461" fill="#1a1a1a" stroke="none" class="scav-trans scav-id-1"/>
  <polygon points="928,5524 832,5572 832,5476" fill="#1a1a1a" stroke="none" class="scav-trans scav-id-2"/>
  <polygon points="8091,6600 7995,6648 7995,6552" fill="#1a1a1a" stroke="none" class="scav-trans scav-id-4"/>
  <polygon points="928,7579 832,7627 832,7531" fill="#1a1a1a" stroke="none" class="scav-trans scav-id-5"/>
  <polygon points="8091,6392 7995,6440 7995,6344" fill="#1a1a1a" stroke="none" class="scav-trans scav-id-6"/>
  <polygon points="8693,5517 8741,5613 8645,5613" fill="#1a1a1a" stroke="none" class="scav-trans scav-id-7"/>
  <polygon points="11983,5190 11887,5238 11887,5142" fill="#1a1a1a" stroke="none" class="scav-trans scav-id-8"/>
  <polygon points="7480,8112 7384,8160 7384,8064" fill="#1a1a1a" stroke="none" class="scav-trans scav-id-9"/>
  <polygon points="8072,7133 8120,7229 8024,7229" fill="#1a1a1a" stroke="none" class="scav-trans scav-id-10"/>
  <polygon points="7976,7786 7928,7690 8024,7690" fill="#1a1a1a" stroke="none" class="scav-trans scav-id-11"/>
  <polygon points="10662,2444 10566,2492 10566,2396" fill="#1a1a1a" stroke="none" class="scav-trans scav-id-12"/>
  <polygon points="11110,1361 11158,1457 11062,1457" fill="#1a1a1a" stroke="none" class="scav-trans scav-id-13"/>
  <polygon points="8767,1034 8863,986 8863,1082" fill="#1a1a1a" stroke="none" class="scav-trans scav-id-14"/>
  <polygon points="10662,2110 10566,2158 10566,2062" fill="#1a1a1a" stroke="none" class="scav-trans scav-id-15"/>
  <polygon points="14966,6600 14870,6648 14870,6552" fill="#1a1a1a" stroke="none" class="scav-trans scav-id-16"/>
  <polygon points="15414,5517 15462,5613 15366,5613" fill="#1a1a1a" stroke="none" class="scav-trans scav-id-17"/>
  <polygon points="13071,5190 13167,5142 13167,5238" fill="#1a1a1a" stroke="none" class="scav-trans scav-id-18"/>
  <polygon points="14966,6266 14870,6314 14870,6218" fill="#1a1a1a" stroke="none" class="scav-trans scav-id-19"/>
  <polygon points="14315,0 15736,525 14315,1050 12894,525" fill="#ffffff" stroke="#1a1a1a" stroke-width="16" class="scav-state scav-id-4"/>
  <text x="3081" y="723" font-size="160" textLength="768" lengthAdjust="spacing" fill="#1a1a1a" class="scav-trans scav-id-1">POWER_ON</text>
  <text x="480" y="6878" font-size="160" textLength="960" lengthAdjust="spacing" fill="#1a1a1a" class="scav-trans scav-id-3">BUMP_RETRY</text>
  <text x="2944" y="6814" font-size="160" textLength="1056" lengthAdjust="spacing" fill="#1a1a1a" class="scav-trans scav-id-4">battery low</text>
  <text x="7045" y="5998" font-size="160" textLength="1440" lengthAdjust="spacing" fill="#1a1a1a" class="scav-trans scav-id-7">contacts closed</text>
  <text x="10496" y="5404" font-size="160" textLength="384" lengthAdjust="spacing" fill="#1a1a1a" class="scav-trans scav-id-8">full</text>
  <text x="8261" y="7614" font-size="160" textLength="1248" lengthAdjust="spacing" fill="#1a1a1a" class="scav-trans scav-id-10">vacuum docked</text>
  <text x="6750" y="7518" font-size="160" textLength="1056" lengthAdjust="spacing" fill="#1a1a1a" class="scav-trans scav-id-11">vacuum left</text>
  <text x="10201" y="1767" font-size="160" textLength="768" lengthAdjust="spacing" fill="#1a1a1a" class="scav-trans scav-id-13">charging</text>
  <text x="9293" y="1248" font-size="160" textLength="672" lengthAdjust="spacing" fill="#1a1a1a" class="scav-trans scav-id-14">charged</text>
  <text x="9252" y="2055" font-size="160" textLength="768" lengthAdjust="spacing" fill="#1a1a1a" class="scav-trans scav-id-15">undocked</text>
  <text x="14505" y="5923" font-size="160" textLength="768" lengthAdjust="spacing" fill="#1a1a1a" class="scav-trans scav-id-17">charging</text>
  <text x="13597" y="5404" font-size="160" textLength="672" lengthAdjust="spacing" fill="#1a1a1a" class="scav-trans scav-id-18">charged</text>
  <text x="13556" y="6211" font-size="160" textLength="768" lengthAdjust="spacing" fill="#1a1a1a" class="scav-trans scav-id-19">undocked</text>
  <text x="6053" y="3768" font-size="192" textLength="461" lengthAdjust="spacing" fill="#1a1a1a" class="scav-state scav-id-0">dock</text>
  <text x="8197" y="320" font-size="192" textLength="461" lengthAdjust="spacing" fill="#1a1a1a" class="scav-state scav-id-1">lamp</text>
  <text x="1008" y="503" font-size="192" textLength="346" lengthAdjust="spacing" fill="#1a1a1a" class="scav-state scav-id-2">Off</text>
  <text x="5554" y="503" font-size="192" textLength="807" lengthAdjust="spacing" fill="#1a1a1a" class="scav-state scav-id-3">Booting</text>
  <text x="13797" y="621" font-size="192" textLength="1037" lengthAdjust="spacing" fill="#1a1a1a" class="scav-state scav-id-4">PreConfig</text>
  <text x="408" y="4993" font-size="192" textLength="231" lengthAdjust="spacing" fill="#1a1a1a" class="scav-state scav-id-5">On</text>
  <text x="1145" y="5518" font-size="192" textLength="461" lengthAdjust="spacing" fill="#1a1a1a" class="scav-state scav-id-6">Idle</text>
  <text x="432" y="6459" font-size="192" textLength="576" lengthAdjust="spacing" fill="#1a1a1a" class="scav-state scav-id-7">Ready</text>
  <text x="1145" y="7573" font-size="192" textLength="461" lengthAdjust="spacing" fill="#1a1a1a" class="scav-state scav-id-8">Idle</text>
  <text x="11997" y="4476" font-size="192" textLength="461" lengthAdjust="spacing" fill="#1a1a1a" class="scav-state scav-id-9">lamp</text>
  <text x="7712" y="8106" font-size="192" textLength="576" lengthAdjust="spacing" fill="#1a1a1a" class="scav-state scav-id-10">Empty</text>
  <text x="6552" y="4476" font-size="192" textLength="231" lengthAdjust="spacing" fill="#1a1a1a" class="scav-state scav-id-11">On</text>
  <text x="8337" y="6490" font-size="192" textLength="692" lengthAdjust="spacing" fill="#1a1a1a" class="scav-state scav-id-12">Seated</text>
  <text x="8251" y="5184" font-size="192" textLength="922" lengthAdjust="spacing" fill="#1a1a1a" class="scav-state scav-id-13">Charging</text>
  <text x="10870" y="2334" font-size="192" textLength="346" lengthAdjust="spacing" fill="#1a1a1a" class="scav-state scav-id-14">Off</text>
  <text x="10668" y="1028" font-size="192" textLength="922" lengthAdjust="spacing" fill="#1a1a1a" class="scav-state scav-id-15">Blinking</text>
  <text x="7911" y="1028" font-size="192" textLength="576" lengthAdjust="spacing" fill="#1a1a1a" class="scav-state scav-id-16">Solid</text>
  <text x="15174" y="6490" font-size="192" textLength="346" lengthAdjust="spacing" fill="#1a1a1a" class="scav-state scav-id-17">Off</text>
  <text x="14972" y="5184" font-size="192" textLength="922" lengthAdjust="spacing" fill="#1a1a1a" class="scav-state scav-id-18">Blinking</text>
  <text x="12215" y="5184" font-size="192" textLength="576" lengthAdjust="spacing" fill="#1a1a1a" class="scav-state scav-id-19">Solid</text>
  <circle cx="112" cy="509" r="112" fill="#1a1a1a" stroke="#1a1a1a" stroke-width="16" class="scav-state scav-id-20"/>
  <circle cx="240" cy="5524" r="112" fill="#1a1a1a" stroke="#1a1a1a" stroke-width="16" class="scav-state scav-id-21"/>
  <circle cx="240" cy="7579" r="112" fill="#1a1a1a" stroke="#1a1a1a" stroke-width="16" class="scav-state scav-id-22"/>
  <circle cx="7403" cy="6392" r="112" fill="#1a1a1a" stroke="#1a1a1a" stroke-width="16" class="scav-state scav-id-23"/>
  <circle cx="6792" cy="8112" r="112" fill="#1a1a1a" stroke="#1a1a1a" stroke-width="16" class="scav-state scav-id-24"/>
  <circle cx="9974" cy="2444" r="112" fill="#1a1a1a" stroke="#1a1a1a" stroke-width="16" class="scav-state scav-id-25"/>
  <circle cx="14278" cy="6600" r="112" fill="#1a1a1a" stroke="#1a1a1a" stroke-width="16" class="scav-state scav-id-26"/>
</svg>
