<?xml version="1.0" encoding="UTF-8"?>
<svg xmlns="http://www.w3.org/2000/svg" width="1013" height="602" viewBox="-128 -128 16208 9622">
  <style>text { font-family: "JetBrains Mono", monospace; font-kerning: none; }</style>
  <rect x="2605" y="0" width="13347" height="6101" rx="128" fill="#ffffff" stroke="#1a1a1a" stroke-width="16" class="scav-state scav-id-0"/>
  <rect x="4385" y="6389" width="4404" height="2977" rx="128" fill="#ffffff" stroke="#1a1a1a" stroke-width="16" class="scav-state scav-id-1"/>
  <rect x="800" y="6572" width="896" height="653" rx="81" fill="#ffffff" stroke="#1a1a1a" stroke-width="16" class="scav-state scav-id-2"/>
  <rect x="762" y="7878" width="1319" height="653" rx="81" fill="#ffffff" stroke="#1a1a1a" stroke-width="16" class="scav-state scav-id-3"/>
  <rect x="0" y="804" width="2029" height="3649" rx="128" fill="#ffffff" stroke="#1a1a1a" stroke-width="16" class="scav-state scav-id-5"/>
  <rect x="928" y="2827" width="973" height="653" rx="81" fill="#ffffff" stroke="#1a1a1a" stroke-width="16" class="scav-state scav-id-6"/>
  <rect x="128" y="1329" width="1664" height="922" rx="115" fill="#ffffff" stroke="#1a1a1a" stroke-width="16" class="scav-state scav-id-7"/>
  <rect x="928" y="3672" width="973" height="653" rx="81" fill="#ffffff" stroke="#1a1a1a" stroke-width="16" class="scav-state scav-id-8"/>
  <rect x="10965" y="2302" width="4859" height="3489" rx="128" fill="#ffffff" stroke="#1a1a1a" stroke-width="16" class="scav-state scav-id-9"/>
  <rect x="6302" y="4626" width="1088" height="653" rx="81" fill="#ffffff" stroke="#1a1a1a" stroke-width="16" class="scav-state scav-id-10"/>
  <rect x="4929" y="708" width="3834" height="3265" rx="128" fill="#ffffff" stroke="#1a1a1a" stroke-width="16" class="scav-state scav-id-11"/>
  <rect x="5857" y="1416" width="1204" height="653" rx="81" fill="#ffffff" stroke="#1a1a1a" stroke-width="16" class="scav-state scav-id-12"/>
  <rect x="6625" y="3010" width="1434" height="653" rx="81" fill="#ffffff" stroke="#1a1a1a" stroke-width="16" class="scav-state scav-id-13"/>
  <rect x="7496" y="8403" width="896" height="653" rx="81" fill="#ffffff" stroke="#1a1a1a" stroke-width="16" class="scav-state scav-id-14"/>
  <rect x="7227" y="7097" width="1434" height="653" rx="81" fill="#ffffff" stroke="#1a1a1a" stroke-width="16" class="scav-state scav-id-15"/>
  <rect x="4513" y="7097" width="1088" height="653" rx="81" fill="#ffffff" stroke="#1a1a1a" stroke-width="16" class="scav-state scav-id-16"/>
  <rect x="14800" y="4771" width="896" height="653" rx="81" fill="#ffffff" stroke="#1a1a1a" stroke-width="16" class="scav-state scav-id-17"/>
  <rect x="11740" y="4316" width="1434" height="653" rx="81" fill="#ffffff" stroke="#1a1a1a" stroke-width="16" class="scav-state scav-id-18"/>
  <rect x="11669" y="3010" width="1088" height="653" rx="81" fill="#ffffff" stroke="#1a1a1a" stroke-width="16" class="scav-state scav-id-19"/>
  <line x1="128" y1="3576" x2="1901" y2="3576" fill="none" stroke="#808080" stroke-width="16" stroke-dasharray="64,48" class="scav-sub scav-id-2"/>
  <polyline points="224,6898 704,6898" fill="none" stroke="#1a1a1a" stroke-width="16" class="scav-trans scav-id-0"/>
  <polyline points="1334,7225 1334,7782" fill="none" stroke="#1a1a1a" stroke-width="16" class="scav-trans scav-id-1"/>
  <polyline points="352,3153 832,3153" fill="none" stroke="#1a1a1a" stroke-width="16" class="scav-trans scav-id-2"/>
  <polyline points="1677,2251 1677,2539 2029,2539 2605,2539 4929,2539 4977,2539 4977,1973 5761,1973" fill="none" stroke="#1a1a1a" stroke-width="16" class="scav-trans scav-id-4"/>
  <polyline points="352,3998 832,3998" fill="none" stroke="#1a1a1a" stroke-width="16" class="scav-trans scav-id-5"/>
  <polyline points="5281,1742 5761,1742" fill="none" stroke="#1a1a1a" stroke-width="16" class="scav-trans scav-id-6"/>
  <polyline points="6900,2069 6900,2914" fill="none" stroke="#1a1a1a" stroke-width="16" class="scav-trans scav-id-7"/>
  <polyline points="8059,3336 8763,3336 10965,3336 11573,3336" fill="none" stroke="#1a1a1a" stroke-width="16" class="scav-trans scav-id-8"/>
  <polyline points="5726,4952 6206,4952" fill="none" stroke="#1a1a1a" stroke-width="16" class="scav-trans scav-id-9"/>
  <polyline points="6894,4626 6894,4069" fill="none" stroke="#1a1a1a" stroke-width="16" class="scav-trans scav-id-10"/>
  <polyline points="6798,3973 6798,4530" fill="none" stroke="#1a1a1a" stroke-width="16" class="scav-trans scav-id-11"/>
  <polyline points="6920,8729 7400,8729" fill="none" stroke="#1a1a1a" stroke-width="16" class="scav-trans scav-id-12"/>
  <polyline points="7944,8403 7944,7846" fill="none" stroke="#1a1a1a" stroke-width="16" class="scav-trans scav-id-13"/>
  <polyline points="7227,7423 5697,7423" fill="none" stroke="#1a1a1a" stroke-width="16" class="scav-trans scav-id-14"/>
  <polyline points="5505,7750 5505,8499 7400,8499" fill="none" stroke="#1a1a1a" stroke-width="16" class="scav-trans scav-id-15"/>
  <polyline points="14224,5097 14704,5097" fill="none" stroke="#1a1a1a" stroke-width="16" class="scav-trans scav-id-16"/>
  <polyline points="14800,4869 13270,4869" fill="none" stroke="#1a1a1a" stroke-width="16" class="scav-trans scav-id-17"/>
  <polyline points="12335,4316 12335,3759" fill="none" stroke="#1a1a1a" stroke-width="16" class="scav-trans scav-id-18"/>
  <polyline points="12757,3567 14896,3567 14896,4675" fill="none" stroke="#1a1a1a" stroke-width="16" class="scav-trans scav-id-19"/>
  <polygon points="800,6898 704,6946 704,6850" fill="#1a1a1a" stroke="none" class="scav-trans scav-id-0"/>
  <polygon points="1334,7878 1286,7782 1382,7782" fill="#1a1a1a" stroke="none" class="scav-trans scav-id-1"/>
  <polygon points="928,3153 832,3201 832,3105" fill="#1a1a1a" stroke="none" class="scav-trans scav-id-2"/>
  <polygon points="5857,1973 5761,2021 5761,1925" fill="#1a1a1a" stroke="none" class="scav-trans scav-id-4"/>
  <polygon points="928,3998 832,4046 832,3950" fill="#1a1a1a" stroke="none" class="scav-trans scav-id-5"/>
  <polygon points="5857,1742 5761,1790 5761,1694" fill="#1a1a1a" stroke="none" class="scav-trans scav-id-6"/>
  <polygon points="6900,3010 6852,2914 6948,2914" fill="#1a1a1a" stroke="none" class="scav-trans scav-id-7"/>
  <polygon points="11669,3336 11573,3384 11573,3288" fill="#1a1a1a" stroke="none" class="scav-trans scav-id-8"/>
  <polygon points="6302,4952 6206,5000 6206,4904" fill="#1a1a1a" stroke="none" class="scav-trans scav-id-9"/>
  <polygon points="6894,3973 6942,4069 6846,4069" fill="#1a1a1a" stroke="none" class="scav-trans scav-id-10"/>
  <polygon points="6798,4626 6750,4530 6846,4530" fill="#1a1a1a" stroke="none" class="scav-trans scav-id-11"/>
  <polygon points="7496,8729 7400,8777 7400,8681" fill="#1a1a1a" stroke="none" class="scav-trans scav-id-12"/>
  <polygon points="7944,7750 7992,7846 7896,7846" fill="#1a1a1a" stroke="none" class="scav-trans scav-id-13"/>
  <polygon points="5601,7423 5697,7375 5697,7471" fill="#1a1a1a" stroke="none" class="scav-trans scav-id-14"/>
  <polygon points="7496,8499 7400,8547 7400,8451" fill="#1a1a1a" stroke="none" class="scav-trans scav-id-15"/>
  <polygon points="14800,5097 14704,5145 14704,5049" fill="#1a1a1a" stroke="none" class="scav-trans scav-id-16"/>
  <polygon points="13174,4869 13270,4821 13270,4917" fill="#1a1a1a" stroke="none" class="scav-trans scav-id-17"/>
  <polygon points="12335,3663 12383,3759 12287,3759" fill="#1a1a1a" stroke="none" class="scav-trans scav-id-18"/>
  <polygon points="14896,4771 14848,4675 14944,4675" fill="#1a1a1a" stroke="none" class="scav-trans scav-id-19"/>
  <polygon points="12514,6389 13935,6914 12514,7439 11093,6914" fill="#ffffff" stroke="#1a1a1a" stroke-width="16" class="scav-state scav-id-4"/>
  <text x="1475" y="7610" font-size="160" textLength="768" lengthAdjust="spacing" fill="#1a1a1a" class="scav-trans scav-id-1">POWER_ON</text>
  <text x="480" y="2068" font-size="160" textLength="960" lengthAdjust="spacing" fill="#1a1a1a" class="scav-trans scav-id-3">BUMP_RETRY</text>
  <text x="3245" y="2753" font-size="160" textLength="1056" lengthAdjust="spacing" fill="#1a1a1a" class="scav-trans scav-id-4">battery low</text>
  <text x="7108" y="2588" font-size="160" textLength="1440" lengthAdjust="spacing" fill="#1a1a1a" class="scav-trans scav-id-7">contacts closed</text>
  <text x="9681" y="3550" font-size="160" textLength="384" lengthAdjust="spacing" fill="#1a1a1a" class="scav-trans scav-id-8">full</text>
  <text x="7083" y="4454" font-size="160" textLength="1248" lengthAdjust="spacing" fill="#1a1a1a" class="scav-trans scav-id-10">vacuum docked</text>
  <text x="5572" y="4358" font-size="160" textLength="1056" lengthAdjust="spacing" fill="#1a1a1a" class="scav-trans scav-id-11">vacuum left</text>
  <text x="7035" y="8156" font-size="160" textLength="768" lengthAdjust="spacing" fill="#1a1a1a" class="scav-trans scav-id-13">charging</text>
  <text x="6127" y="7637" font-size="160" textLength="672" lengthAdjust="spacing" fill="#1a1a1a" class="scav-trans scav-id-14">charged</text>
  <text x="5742" y="8713" font-size="160" textLength="768" lengthAdjust="spacing" fill="#1a1a1a" class="scav-trans scav-id-15">undocked</text>
  <text x="13652" y="4814" font-size="160" textLength="768" lengthAdjust="spacing" fill="#1a1a1a" class="scav-trans scav-id-17">charging</text>
  <text x="12466" y="4144" font-size="160" textLength="672" lengthAdjust="spacing" fill="#1a1a1a" class="scav-trans scav-id-18">charged</text>
  <text x="13418" y="3781" font-size="160" textLength="768" lengthAdjust="spacing" fill="#1a1a1a" class="scav-trans scav-id-19">undocked</text>
  <text x="4369" y="320" font-size="192" textLength="461" lengthAdjust="spacing" fill="#1a1a1a" class="scav-state scav-id-0">dock</text>
  <text x="5031" y="6709" font-size="192" textLength="461" lengthAdjust="spacing" fill="#1a1a1a" class="scav-state scav-id-1">lamp</text>
  <text x="1008" y="6892" font-size="192" textLength="346" lengthAdjust="spacing" fill="#1a1a1a" class="scav-state scav-id-2">Off</text>
  <text x="1022" y="8198" font-size="192" textLength="807" lengthAdjust="spacing" fill="#1a1a1a" class="scav-state scav-id-3">Booting</text>
  <text x="11996" y="7010" font-size="192" textLength="1037" lengthAdjust="spacing" fill="#1a1a1a" class="scav-state scav-id-4">PreConfig</text>
  <text x="349" y="1124" font-size="192" textLength="231" lengthAdjust="spacing" fill="#1a1a1a" class="scav-state scav-id-5">On</text>
  <text x="1145" y="3147" font-size="192" textLength="461" lengthAdjust="spacing" fill="#1a1a1a" class="scav-state scav-id-6">Idle</text>
  <text x="432" y="1649" font-size="192" textLength="576" lengthAdjust="spacing" fill="#1a1a1a" class="scav-state scav-id-7">Ready</text>
  <text x="1145" y="3992" font-size="192" textLength="461" lengthAdjust="spacing" fill="#1a1a1a" class="scav-state scav-id-8">Idle</text>
  <text x="11668" y="2622" font-size="192" textLength="461" lengthAdjust="spacing" fill="#1a1a1a" class="scav-state scav-id-9">lamp</text>
  <text x="6534" y="4946" font-size="192" textLength="576" lengthAdjust="spacing" fill="#1a1a1a" class="scav-state scav-id-10">Empty</text>
  <text x="5504" y="1028" font-size="192" textLength="231" lengthAdjust="spacing" fill="#1a1a1a" class="scav-state scav-id-11">On</text>
  <text x="6103" y="1736" font-size="192" textLength="692" lengthAdjust="spacing" fill="#1a1a1a" class="scav-state scav-id-12">Seated</text>
  <text x="6900" y="3330" font-size="192" textLength="922" lengthAdjust="spacing" fill="#1a1a1a" class="scav-state scav-id-13">Charging</text>
  <text x="7704" y="8723" font-size="192" textLength="346" lengthAdjust="spacing" fill="#1a1a1a" class="scav-state scav-id-14">Off</text>
  <text x="7502" y="7417" font-size="192" textLength="922" lengthAdjust="spacing" fill="#1a1a1a" class="scav-state scav-id-15">Blinking</text>
  <text x="4745" y="7417" font-size="192" textLength="576" lengthAdjust="spacing" fill="#1a1a1a" class="scav-state scav-id-16">Solid</text>
  <text x="15008" y="5091" font-size="192" textLength="346" lengthAdjust="spacing" fill="#1a1a1a" class="scav-state scav-id-17">Off</text>
  <text x="12015" y="4636" font-size="192" textLength="922" lengthAdjust="spacing" fill="#1a1a1a" class="scav-state scav-id-18">Blinking</text>
  <text x="11901" y="3330" font-size="192" textLength="576" lengthAdjust="spacing" fill="#1a1a1a" class="scav-state scav-id-19">Solid</text>
  <circle cx="112" cy="6898" r="112" fill="#1a1a1a" stroke="#1a1a1a" stroke-width="16" class="scav-state scav-id-20"/>
  <circle cx="240" cy="3153" r="112" fill="#1a1a1a" stroke="#1a1a1a" stroke-width="16" class="scav-state scav-id-21"/>
  <circle cx="240" cy="3998" r="112" fill="#1a1a1a" stroke="#1a1a1a" stroke-width="16" class="scav-state scav-id-22"/>
  <circle cx="5169" cy="1742" r="112" fill="#1a1a1a" stroke="#1a1a1a" stroke-width="16" class="scav-state scav-id-23"/>
  <circle cx="5614" cy="4952" r="112" fill="#1a1a1a" stroke="#1a1a1a" stroke-width="16" class="scav-state scav-id-24"/>
  <circle cx="6808" cy="8729" r="112" fill="#1a1a1a" stroke="#1a1a1a" stroke-width="16" class="scav-state scav-id-25"/>
  <circle cx="14112" cy="5097" r="112" fill="#1a1a1a" stroke="#1a1a1a" stroke-width="16" class="scav-state scav-id-26"/>
</svg>
