<?xml version="1.0" encoding="UTF-8"?>
<svg xmlns="http://www.w3.org/2000/svg" width="678" height="854" viewBox="-128 -128 10844 13651">
  <style>text { font-family: "JetBrains Mono", monospace; font-kerning: none; }</style>
  <rect x="2496" y="3919" width="5723" height="9476" rx="128" fill="#ffffff" stroke="#1a1a1a" stroke-width="16" class="scav-state scav-id-0"/>
  <rect x="0" y="0" width="5166" height="3631" rx="128" fill="#ffffff" stroke="#1a1a1a" stroke-width="16" class="scav-state scav-id-1"/>
  <rect x="9307" y="4102" width="896" height="653" rx="81" fill="#ffffff" stroke="#1a1a1a" stroke-width="16" class="scav-state scav-id-2"/>
  <rect x="9269" y="5408" width="1319" height="653" rx="81" fill="#ffffff" stroke="#1a1a1a" stroke-width="16" class="scav-state scav-id-3"/>
  <rect x="0" y="6465" width="1920" height="4385" rx="128" fill="#ffffff" stroke="#1a1a1a" stroke-width="16" class="scav-state scav-id-5"/>
  <rect x="128" y="7502" width="973" height="653" rx="81" fill="#ffffff" stroke="#1a1a1a" stroke-width="16" class="scav-state scav-id-6"/>
  <rect x="128" y="8443" width="1664" height="922" rx="115" fill="#ffffff" stroke="#1a1a1a" stroke-width="16" class="scav-state scav-id-7"/>
  <rect x="128" y="10069" width="973" height="653" rx="81" fill="#ffffff" stroke="#1a1a1a" stroke-width="16" class="scav-state scav-id-8"/>
  <rect x="2925" y="10108" width="5166" height="2977" rx="128" fill="#ffffff" stroke="#1a1a1a" stroke-width="16" class="scav-state scav-id-9"/>
  <rect x="3962" y="4627" width="1088" height="653" rx="81" fill="#ffffff" stroke="#1a1a1a" stroke-width="16" class="scav-state scav-id-10"/>
  <rect x="3962" y="6190" width="3258" height="3265" rx="128" fill="#ffffff" stroke="#1a1a1a" stroke-width="16" class="scav-state scav-id-11"/>
  <rect x="5697" y="6898" width="1204" height="653" rx="81" fill="#ffffff" stroke="#1a1a1a" stroke-width="16" class="scav-state scav-id-12"/>
  <rect x="5658" y="8492" width="1434" height="653" rx="81" fill="#ffffff" stroke="#1a1a1a" stroke-width="16" class="scav-state scav-id-13"/>
  <rect x="928" y="708" width="896" height="653" rx="81" fill="#ffffff" stroke="#1a1a1a" stroke-width="16" class="scav-state scav-id-14"/>
  <rect x="890" y="2014" width="1434" height="653" rx="81" fill="#ffffff" stroke="#1a1a1a" stroke-width="16" class="scav-state scav-id-15"/>
  <rect x="3950" y="2504" width="1088" height="653" rx="81" fill="#ffffff" stroke="#1a1a1a" stroke-width="16" class="scav-state scav-id-16"/>
  <rect x="4391" y="10816" width="896" height="653" rx="81" fill="#ffffff" stroke="#1a1a1a" stroke-width="16" class="scav-state scav-id-17"/>
  <rect x="6529" y="10816" width="1434" height="653" rx="81" fill="#ffffff" stroke="#1a1a1a" stroke-width="16" class="scav-state scav-id-18"/>
  <rect x="4391" y="12122" width="1088" height="653" rx="81" fill="#ffffff" stroke="#1a1a1a" stroke-width="16" class="scav-state scav-id-19"/>
  <line x1="128" y1="9461" x2="1792" y2="9461" fill="none" stroke="#808080" stroke-width="16" stroke-dasharray="64,48" class="scav-sub scav-id-2"/>
  <polyline points="8731,4428 9211,4428" fill="none" stroke="#1a1a1a" stroke-width="16" class="scav-trans scav-id-0"/>
  <polyline points="9841,4755 9841,5312" fill="none" stroke="#1a1a1a" stroke-width="16" class="scav-trans scav-id-1"/>
  <polyline points="240,7214 240,7406" fill="none" stroke="#1a1a1a" stroke-width="16" class="scav-trans scav-id-2"/>
  <polyline points="1792,8904 1920,8904 2016,8904 2016,5536 2496,5536 2496,7424 3962,7424 5601,7424" fill="none" stroke="#1a1a1a" stroke-width="16" class="scav-trans scav-id-4"/>
  <polyline points="240,9781 240,9973" fill="none" stroke="#1a1a1a" stroke-width="16" class="scav-trans scav-id-5"/>
  <polyline points="4314,7024 5601,7024" fill="none" stroke="#1a1a1a" stroke-width="16" class="scav-trans scav-id-6"/>
  <polyline points="6337,7551 6337,8396" fill="none" stroke="#1a1a1a" stroke-width="16" class="scav-trans scav-id-7"/>
  <polyline points="5754,8492 5754,8021 3962,8021 2829,8021 2829,12448 2925,12448 4295,12448" fill="none" stroke="#1a1a1a" stroke-width="16" class="scav-trans scav-id-8"/>
  <polyline points="2848,4953 3866,4953" fill="none" stroke="#1a1a1a" stroke-width="16" class="scav-trans scav-id-9"/>
  <polyline points="4954,5280 4954,5376 7316,5376 7316,6318 7268,6318" fill="none" stroke="#1a1a1a" stroke-width="16" class="scav-trans scav-id-10"/>
  <polyline points="4969,6190 4969,5376" fill="none" stroke="#1a1a1a" stroke-width="16" class="scav-trans scav-id-11"/>
  <polyline points="352,1034 832,1034" fill="none" stroke="#1a1a1a" stroke-width="16" class="scav-trans scav-id-12"/>
  <polyline points="1491,1361 1491,1918" fill="none" stroke="#1a1a1a" stroke-width="16" class="scav-trans scav-id-13"/>
  <polyline points="2324,2585 3854,2585" fill="none" stroke="#1a1a1a" stroke-width="16" class="scav-trans scav-id-14"/>
  <polyline points="4046,3157 4046,3320 794,3320 794,1265 861,1265" fill="none" stroke="#1a1a1a" stroke-width="16" class="scav-trans scav-id-15"/>
  <polyline points="3277,11142 4295,11142" fill="none" stroke="#1a1a1a" stroke-width="16" class="scav-trans scav-id-16"/>
  <polyline points="5287,11142 6433,11142" fill="none" stroke="#1a1a1a" stroke-width="16" class="scav-trans scav-id-17"/>
  <polyline points="6625,11469 6625,12218 5575,12218" fill="none" stroke="#1a1a1a" stroke-width="16" class="scav-trans scav-id-18"/>
  <polyline points="4887,12122 4887,11565" fill="none" stroke="#1a1a1a" stroke-width="16" class="scav-trans scav-id-19"/>
  <polygon points="9307,4428 9211,4476 9211,4380" fill="#1a1a1a" stroke="none" class="scav-trans scav-id-0"/>
  <polygon points="9841,5408 9793,5312 9889,5312" fill="#1a1a1a" stroke="none" class="scav-trans scav-id-1"/>
  <polygon points="240,7502 192,7406 288,7406" fill="#1a1a1a" stroke="none" class="scav-trans scav-id-2"/>
  <polygon points="5697,7424 5601,7472 5601,7376" fill="#1a1a1a" stroke="none" class="scav-trans scav-id-4"/>
  <polygon points="240,10069 192,9973 288,9973" fill="#1a1a1a" stroke="none" class="scav-trans scav-id-5"/>
  <polygon points="5697,7024 5601,7072 5601,6976" fill="#1a1a1a" stroke="none" class="scav-trans scav-id-6"/>
  <polygon points="6337,8492 6289,8396 6385,8396" fill="#1a1a1a" stroke="none" class="scav-trans scav-id-7"/>
  <polygon points="4391,12448 4295,12496 4295,12400" fill="#1a1a1a" stroke="none" class="scav-trans scav-id-8"/>
  <polygon points="3962,4953 3866,5001 3866,4905" fill="#1a1a1a" stroke="none" class="scav-trans scav-id-9"/>
  <polygon points="7220,6318 7300,6278 7300,6358" fill="#1a1a1a" stroke="none" class="scav-trans scav-id-10"/>
  <polygon points="4969,5280 5017,5376 4921,5376" fill="#1a1a1a" stroke="none" class="scav-trans scav-id-11"/>
  <polygon points="928,1034 832,1082 832,986" fill="#1a1a1a" stroke="none" class="scav-trans scav-id-12"/>
  <polygon points="1491,2014 1443,1918 1539,1918" fill="#1a1a1a" stroke="none" class="scav-trans scav-id-13"/>
  <polygon points="3950,2585 3854,2633 3854,2537" fill="#1a1a1a" stroke="none" class="scav-trans scav-id-14"/>
  <polygon points="928,1265 848,1305 848,1225" fill="#1a1a1a" stroke="none" class="scav-trans scav-id-15"/>
  <polygon points="4391,11142 4295,11190 4295,11094" fill="#1a1a1a" stroke="none" class="scav-trans scav-id-16"/>
  <polygon points="6529,11142 6433,11190 6433,11094" fill="#1a1a1a" stroke="none" class="scav-trans scav-id-17"/>
  <polygon points="5479,12218 5575,12170 5575,12266" fill="#1a1a1a" stroke="none" class="scav-trans scav-id-18"/>
  <polygon points="4887,11469 4935,11565 4839,11565" fill="#1a1a1a" stroke="none" class="scav-trans scav-id-19"/>
  <polygon points="8021,0 9442,525 8021,1050 6600,525" fill="#ffffff" stroke="#1a1a1a" stroke-width="16" class="scav-state scav-id-4"/>
  <text x="8932" y="5140" font-size="160" textLength="768" lengthAdjust="spacing" fill="#1a1a1a" class="scav-trans scav-id-1">POWER_ON</text>
  <text x="480" y="9182" font-size="160" textLength="960" lengthAdjust="spacing" fill="#1a1a1a" class="scav-trans scav-id-3">BUMP_RETRY</text>
  <text x="790" y="6382" font-size="160" textLength="1056" lengthAdjust="spacing" fill="#1a1a1a" class="scav-trans scav-id-4">battery low</text>
  <text x="4689" y="7802" font-size="160" textLength="1440" lengthAdjust="spacing" fill="#1a1a1a" class="scav-trans scav-id-7">contacts closed</text>
  <text x="3429" y="8235" font-size="160" textLength="384" lengthAdjust="spacing" fill="#1a1a1a" class="scav-trans scav-id-8">full</text>
  <text x="5507" y="5590" font-size="160" textLength="1248" lengthAdjust="spacing" fill="#1a1a1a" class="scav-trans scav-id-10">vacuum docked</text>
  <text x="5139" y="5895" font-size="160" textLength="1056" lengthAdjust="spacing" fill="#1a1a1a" class="scav-trans scav-id-11">vacuum left</text>
  <text x="1632" y="1746" font-size="160" textLength="768" lengthAdjust="spacing" fill="#1a1a1a" class="scav-trans scav-id-13">charging</text>
  <text x="2754" y="2799" font-size="160" textLength="672" lengthAdjust="spacing" fill="#1a1a1a" class="scav-trans scav-id-14">charged</text>
  <text x="2045" y="3265" font-size="160" textLength="768" lengthAdjust="spacing" fill="#1a1a1a" class="scav-trans scav-id-15">undocked</text>
  <text x="5477" y="11087" font-size="160" textLength="768" lengthAdjust="spacing" fill="#1a1a1a" class="scav-trans scav-id-17">charging</text>
  <text x="5744" y="12432" font-size="160" textLength="672" lengthAdjust="spacing" fill="#1a1a1a" class="scav-trans scav-id-18">charged</text>
  <text x="3978" y="11950" font-size="160" textLength="768" lengthAdjust="spacing" fill="#1a1a1a" class="scav-trans scav-id-19">undocked</text>
  <text x="3307" y="4239" font-size="192" textLength="461" lengthAdjust="spacing" fill="#1a1a1a" class="scav-state scav-id-0">dock</text>
  <text x="741" y="320" font-size="192" textLength="461" lengthAdjust="spacing" fill="#1a1a1a" class="scav-state scav-id-1">lamp</text>
  <text x="9515" y="4422" font-size="192" textLength="346" lengthAdjust="spacing" fill="#1a1a1a" class="scav-state scav-id-2">Off</text>
  <text x="9529" y="5728" font-size="192" textLength="807" lengthAdjust="spacing" fill="#1a1a1a" class="scav-state scav-id-3">Booting</text>
  <text x="7503" y="621" font-size="192" textLength="1037" lengthAdjust="spacing" fill="#1a1a1a" class="scav-state scav-id-4">PreConfig</text>
  <text x="336" y="6785" font-size="192" textLength="231" lengthAdjust="spacing" fill="#1a1a1a" class="scav-state scav-id-5">On</text>
  <text x="345" y="7822" font-size="192" textLength="461" lengthAdjust="spacing" fill="#1a1a1a" class="scav-state scav-id-6">Idle</text>
  <text x="432" y="8763" font-size="192" textLength="576" lengthAdjust="spacing" fill="#1a1a1a" class="scav-state scav-id-7">Ready</text>
  <text x="345" y="10389" font-size="192" textLength="461" lengthAdjust="spacing" fill="#1a1a1a" class="scav-state scav-id-8">Idle</text>
  <text x="3666" y="10428" font-size="192" textLength="461" lengthAdjust="spacing" fill="#1a1a1a" class="scav-state scav-id-9">lamp</text>
  <text x="4194" y="4947" font-size="192" textLength="576" lengthAdjust="spacing" fill="#1a1a1a" class="scav-state scav-id-10">Empty</text>
  <text x="4465" y="6510" font-size="192" textLength="231" lengthAdjust="spacing" fill="#1a1a1a" class="scav-state scav-id-11">On</text>
  <text x="5943" y="7218" font-size="192" textLength="692" lengthAdjust="spacing" fill="#1a1a1a" class="scav-state scav-id-12">Seated</text>
  <text x="5933" y="8812" font-size="192" textLength="922" lengthAdjust="spacing" fill="#1a1a1a" class="scav-state scav-id-13">Charging</text>
  <text x="1136" y="1028" font-size="192" textLength="346" lengthAdjust="spacing" fill="#1a1a1a" class="scav-state scav-id-14">Off</text>
  <text x="1165" y="2334" font-size="192" textLength="922" lengthAdjust="spacing" fill="#1a1a1a" class="scav-state scav-id-15">Blinking</text>
  <text x="4182" y="2824" font-size="192" textLength="576" lengthAdjust="spacing" fill="#1a1a1a" class="scav-state scav-id-16">Solid</text>
  <text x="4599" y="11136" font-size="192" textLength="346" lengthAdjust="spacing" fill="#1a1a1a" class="scav-state scav-id-17">Off</text>
  <text x="6804" y="11136" font-size="192" textLength="922" lengthAdjust="spacing" fill="#1a1a1a" class="scav-state scav-id-18">Blinking</text>
  <text x="4623" y="12442" font-size="192" textLength="576" lengthAdjust="spacing" fill="#1a1a1a" class="scav-state scav-id-19">Solid</text>
  <circle cx="8619" cy="4428" r="112" fill="#1a1a1a" stroke="#1a1a1a" stroke-width="16" class="scav-state scav-id-20"/>
  <circle cx="240" cy="7102" r="112" fill="#1a1a1a" stroke="#1a1a1a" stroke-width="16" class="scav-state scav-id-21"/>
  <circle cx="240" cy="9669" r="112" fill="#1a1a1a" stroke="#1a1a1a" stroke-width="16" class="scav-state scav-id-22"/>
  <circle cx="4202" cy="7024" r="112" fill="#1a1a1a" stroke="#1a1a1a" stroke-width="16" class="scav-state scav-id-23"/>
  <circle cx="2736" cy="4953" r="112" fill="#1a1a1a" stroke="#1a1a1a" stroke-width="16" class="scav-state scav-id-24"/>
  <circle cx="240" cy="1034" r="112" fill="#1a1a1a" stroke="#1a1a1a" stroke-width="16" class="scav-state scav-id-25"/>
  <circle cx="3165" cy="11142" r="112" fill="#1a1a1a" stroke="#1a1a1a" stroke-width="16" class="scav-state scav-id-26"/>
</svg>
